<?xml version="1.0" encoding="UTF-8" standalone="no"?>
<!-- Created with Inkscape (http://www.inkscape.org/) -->

<svg
   xmlns:dc="http://purl.org/dc/elements/1.1/"
   xmlns:cc="http://creativecommons.org/ns#"
   xmlns:rdf="http://www.w3.org/1999/02/22-rdf-syntax-ns#"
   xmlns:svg="http://www.w3.org/2000/svg"
   xmlns="http://www.w3.org/2000/svg"
   xmlns:sodipodi="http://sodipodi.sourceforge.net/DTD/sodipodi-0.dtd"
   xmlns:inkscape="http://www.inkscape.org/namespaces/inkscape"
   width="160mm"
   height="69.074524mm"
   viewBox="0 0 566.92914 244.75225"
   id="svg6948"
   version="1.1"
   inkscape:version="0.91 r13725"
   sodipodi:docname="CPskyline.svg">
  <defs
     id="defs6950" />
  <sodipodi:namedview
     id="base"
     pagecolor="#ffffff"
     bordercolor="#666666"
     borderopacity="1.0"
     inkscape:pageopacity="0.0"
     inkscape:pageshadow="2"
     inkscape:zoom="2.8284271"
     inkscape:cx="173.54878"
     inkscape:cy="29.431541"
     inkscape:document-units="px"
     inkscape:current-layer="layer1"
     showgrid="false"
     fit-margin-top="0"
     fit-margin-left="0"
     fit-margin-right="0"
     fit-margin-bottom="0"
     inkscape:window-width="3098"
     inkscape:window-height="1752"
     inkscape:window-x="102"
     inkscape:window-y="48"
     inkscape:window-maximized="1" />
  <metadata
     id="metadata6953">
    <rdf:RDF>
      <cc:Work
         rdf:about="">
        <dc:format>image/svg+xml</dc:format>
        <dc:type
           rdf:resource="http://purl.org/dc/dcmitype/StillImage" />
        <dc:title></dc:title>
      </cc:Work>
    </rdf:RDF>
  </metadata>
  <g
     inkscape:label="Layer 1"
     inkscape:groupmode="layer"
     id="layer1"
     transform="translate(-118.7983,-301.41466)">
    <path
       inkscape:connector-curvature="0"
       style="font-style:normal;font-variant:normal;font-weight:normal;font-stretch:normal;font-size:70px;line-height:125%;font-family:Ubuntu;-inkscape-font-specification:Ubuntu;text-align:start;letter-spacing:0px;word-spacing:0px;writing-mode:lr-tb;text-anchor:start;display:inline;fill:#afafaf;fill-opacity:1;stroke:#000000;stroke-width:1px;stroke-linecap:butt;stroke-linejoin:miter;stroke-opacity:1"
       d="m 199.76196,392.48231 c -1.30246,-0.0524 -1.66447,1.42838 -0.89844,2.47071 0.65541,0.8917 -1.19334,-1.17382 -1.14844,-1.61329 -0.98217,-0.37315 -1.46569,1.0104 -1.74804,1.75782 -0.23178,1.80824 -1.11133,-1.36412 -0.58008,-2.03516 0.28757,-0.98048 -2.13378,-0.20499 -1.73828,0.87305 -0.32497,0.3522 -0.0608,1.29433 -0.14454,1.88867 -0.35475,-0.0367 -0.83791,-0.95199 -1.05468,-1.11328 -0.63786,-0.85525 -1.7972,-1.33582 -3.00196,-1.35742 -0.63924,-0.25258 -1.9556,-0.18362 -2.60742,0 -1.02155,0.29143 -1.54941,0.75568 -2.17187,1.45312 -0.20375,0.8669 -0.13653,1.12171 -0.14453,1.45508 0.33854,1.04483 0.87968,-0.55866 1.73828,-0.72852 1.30429,0.57982 -1.37611,2.3722 -0.43555,3.34375 0.24346,0.78013 0.77271,1.61134 1.14453,0.3711 0.18145,-0.0658 1.07802,-1.52819 0.73828,0.0645 0.51063,1.06193 0.29565,2.81312 0.86914,3.63478 0.10241,0.70671 0.71094,1.29508 1.00586,2.04101 0.21081,0.54697 0.47076,-1.24595 1.03906,-1.25195 0.43417,0.15157 0.35078,2.56554 0.85352,3.2793 0.19181,0.95891 0.57306,1.87808 1.01367,2.61718 0.25822,1.32354 -0.76323,-0.24333 -1.16015,-0.58203 -0.37959,-0.84018 -0.71693,-1.50468 -1.01368,-2.32422 -0.58116,-0.98387 -1.43534,-1.31107 -2.01171,-1.95508 -0.36881,-0.16399 -0.76554,-1.18329 -1.17383,-1.67968 -0.4111,-0.912 -0.88437,-1.64452 -1.44922,-2.32618 -0.36771,-0.62939 -1.08351,-1.52085 -1.44727,-1.88868 -0.47778,-0.54241 -0.96677,-1.16811 -1.9375,-1.31836 -1.00276,0.0389 -1.76499,0.65367 -2.26367,1.31836 0.0266,0.026 0.078,0.0442 0.12891,0.0625 -0.62106,-0.0178 -1.2269,0.09 -1.72266,0.37305 -0.63977,0.39079 -1.00605,0.71593 -0.86914,1.74414 0.35626,0.80804 0.12449,1.87158 0.72461,0.4375 0.30277,-0.76757 1.10472,-1.9735 2.31641,-1.30859 1.06564,0.44396 0.585,0.79806 -0.28907,0.72656 -0.92337,0.52107 -1.73285,1.10221 -1.59375,2.47071 0.32224,0.46945 1.06695,1.81895 0.43555,0.43555 -0.56224,-1.20178 1.05675,-1.88429 2.17188,-1.45312 -0.19595,0.80339 -1.50013,1.08942 -1.15821,2.32617 0.82221,1.46998 0.15832,-0.66833 1.23047,-0.58203 0.59817,-0.44006 -0.17654,1.38679 0.50781,1.30859 0.0723,-1.14806 1.09111,-1.5319 1.37696,-0.70899 0.15645,-0.40713 1.47531,-0.68718 1.42968,-0.004 0.63947,0.50408 0.88197,1.31128 1.6836,1.73047 0.71824,-0.0591 0.79811,0.32186 0.72461,1.25195 -0.0821,1.26388 0.19612,0.281 0.95703,0.3457 1.1467,-0.17106 0.60387,1.2492 1.50586,1.45508 0.8642,0.26326 1.07583,0.7127 1.59179,1.16211 -0.43412,-0.0956 -1.47475,-0.76256 -2.3164,-0.72656 -1.41313,-0.13898 -1.97555,-0.6608 -2.61719,-1.45703 -0.77715,-0.90168 -1.14093,-1.33829 -2.30859,-1.74024 -0.90262,-0.28366 -1.55224,-0.89285 -2.4336,-1.01758 -0.79874,0.008 -1.62891,-0.062 -2.3457,0.14454 -1.09615,0.0709 -1.75974,1.06591 -2.17383,1.30859 -0.46036,0.55351 -0.90254,0.92253 -1.30273,1.88867 -0.53739,1.45692 0.12925,2.15881 1.1582,1.01758 0.62646,-0.28278 2.59162,-0.91814 1.44922,0 -0.3637,0.76162 -0.29106,1.71149 -0.28906,2.70898 -0.10674,1.21328 0.24522,2.00547 0.43359,3.10547 0.44653,0.80468 0.12161,-1.5562 0.86914,-1.74414 0.24248,-0.60132 0.76712,-1.39499 1.01367,-2.03515 0.74583,-0.39203 1.76917,-1.00102 1.44922,0.41015 -0.0239,0.89118 0.51889,1.51612 0.72461,0.60742 0.65684,-0.53666 0.8747,-1.2531 1.73828,-1.45312 0.47201,0.90463 -0.80249,0.95002 -1.36914,1.4375 -0.20652,0.17036 -1.33018,1.07414 -1.14843,1.48437 -0.60733,0.53653 -1.43715,0.92842 -2.26368,1.29297 -0.75253,0.54289 -1.66583,0.71197 -2.3164,1.88867 -0.19467,0.84392 -1.10096,1.45283 -1.16016,2.47071 -0.5978,0.99454 -0.81757,2.485 -0.57812,3.63476 0.53556,0.93671 0.20262,-0.0884 0.72265,-0.72656 0.50901,-0.7 0.79084,-1.40798 1.30469,-2.17969 0.4745,-0.71982 0.7378,-1.32583 1.1582,-2.18164 0.5812,-0.73451 0.81742,-1.18625 1.44922,-1.59765 0.95763,-0.9124 0.46169,0.29651 0,0.87109 -0.41188,0.73518 -0.86414,1.51005 -0.86914,2.41406 0.0557,1.11121 0.11597,2.19694 0.55859,3.20118 0.0488,-0.25417 0.33789,-1.10564 0.59961,-1.4004 0.32727,-1.00364 0.60213,-1.86071 1.01368,-2.61523 0.0978,-0.88784 0.61843,-2.8571 0.7246,-0.72656 0.18438,0.0655 0.33348,0.51349 0.43946,0.89258 -0.0965,0.15084 -0.19315,0.29392 -0.29492,0.41406 -0.39047,0.93084 -0.77699,1.62428 -1.44727,2.32617 -0.35358,0.78837 -0.89644,1.91685 -0.86914,3.19727 -0.22175,1.51839 -0.69663,3.16021 -0.14648,4.65234 0.25818,1.07376 0.64707,1.78998 1.01562,0.29101 0.51968,-0.40126 0.9421,-1.5633 1.1582,-1.5996 -0.0299,1.05635 -0.003,1.88243 0.4336,2.61523 0.58879,0.27628 0.35332,-1.32266 0.86914,-1.59766 0.21364,-0.71063 0.50772,-1.18237 0.72461,-0.14648 5.7e-4,0.87208 -0.001,1.74513 0,2.61719 0.61952,-0.58164 0.98505,-1.53744 1.1582,-2.47071 0.44824,-0.44054 0.64018,-2.25257 0.58008,-0.40429 8.6e-4,0.97761 -0.22533,1.86398 -0.14453,2.875 -0.003,0.0858 0.8471,-1.00393 0.9414,-1.16211 0.1163,0.53897 0.0598,1.57791 0.0723,2.33008 -0.0896,0.97996 0.0613,1.46892 0.43555,0.43164 0.56234,-0.63332 0.9584,-1.35725 1.44726,-2.18164 0.10077,-0.53531 0.72173,-1.99483 1.16016,-0.8711 0.38389,0.68572 0.27156,1.90075 0.28906,2.88086 -0.35978,1.478 0.86239,0.50725 1.19922,-0.0703 0.56258,-0.44187 0.85553,-1.22853 1.11719,-1.93945 0.3331,-0.81093 0.83359,-2.57752 0.29101,-3.48829 -0.36481,-0.51621 -0.82082,-1.60177 -0.46289,-1.27343 0.37607,0.91964 0.59891,1.32585 0.89649,2.29101 0.28822,1.33855 0.23126,3.07387 1.01367,4.07032 -0.0321,1.07914 1.17641,0.29421 1.29492,-0.5879 0.15782,-0.15918 0.55118,-1.30607 0.64258,-1.01953 1.10125,35.52864 1.54935,23.03828 -1.27149,59.40039 -4.74789,1.93611 -7.19882,3.56818 -9.29882,5.71485 -2.1,2.14667 -3.77907,4.80714 -5.03907,7.98047 -1.21333,3.12667 -1.82031,6.71929 -1.82031,10.77929 0,4.06 0.53605,7.67824 1.60938,10.85157 1.12,3.12667 2.68473,5.76348 4.6914,7.91015 2.00667,2.14667 4.40899,3.77844 7.20899,4.89844 2.8,1.12 5.90387,1.68164 9.31054,1.68164 1.96,0 3.77899,-0.11823 5.45899,-0.35156 1.68,-0.23333 3.15015,-0.51318 4.41015,-0.83985 1.26,-0.32667 2.31039,-0.65379 3.15039,-0.98046 0.84,-0.37333 1.42333,-0.67488 1.75,-0.90821 l -1.75,-5.60156 c -1.02667,0.51333 -2.56581,1.09667 -4.61914,1.75 -2.05333,0.65333 -4.64481,0.98047 -7.77148,0.98047 -2.70667,0 -5.08534,-0.46706 -7.13867,-1.40039 -2.00667,-0.93333 -3.68769,-2.23992 -5.04102,-3.91992 -1.35333,-1.72667 -2.38008,-3.78016 -3.08008,-6.16016 -0.65333,-2.38 -0.97851,-5.01683 -0.97851,-7.91016 0,-2.98667 0.37247,-5.66883 1.11914,-8.04883 0.79333,-2.42666 1.9127,-4.48015 3.35937,-6.16015 1.44667,-1.68 3.19667,-2.96294 5.25,-3.84961 2.05333,-0.88667 4.36497,-1.33008 6.93164,-1.33008 1.21333,0 2.40169,0.11628 3.56836,0.34961 1.21333,0.18667 2.31102,0.44286 3.29102,0.76953 1.02667,0.32667 1.93714,0.6538 2.73047,0.98047 0.79333,0.32667 1.39836,0.63016 1.81836,0.91016 l 1.96093,-5.59961 c -0.27999,-0.18667 -0.79434,-0.46652 -1.54101,-0.83985 -0.74667,-0.37333 -1.72612,-0.74776 -2.93945,-1.12109 -1.16667,-0.37333 -2.56589,-0.70047 -4.19922,-0.98047 -1.58667,-0.28 -3.38292,-0.41942 -6.73242,-0.32812 -0.0157,-24.87668 -1.97073,-56.93194 -1.84571,-57.01953 -0.1334,-1.2366 0.52058,-1.87457 0.58008,-3.02344 -0.11351,-1.37342 0.2682,-0.565 0.58008,0.11718 0.0363,1.09206 0.69486,2.30265 0.57812,0.46094 -0.15564,-0.98943 0.19183,-1.07972 0.43555,-0.3164 0.26106,0.6179 0.0716,1.7283 0.58008,2.17968 0.0172,-0.72928 -0.0815,-1.52913 0.14453,-2.17968 -0.0676,-0.89202 0.0781,-1.85055 0.72461,-1.3086 0.46375,0.32007 0.46399,1.10402 0.43359,1.91992 0.0699,1.58762 1.31317,0.0707 0.87891,-0.99218 -0.71015,-1.5149 0.46069,-1.53609 1.00391,-0.78125 0.56805,0.31611 0.77523,1.03823 1.1582,1.59765 0.5506,1.32455 0.37558,-0.49532 0.58008,-1.01758 0.51184,-0.69 0.42304,-1.82908 0.43554,-2.90624 -0.41776,-0.53223 -0.69119,-1.32762 -1.01562,-1.88868 -0.29622,-0.60138 -0.90942,-1.32527 -1.30274,-2.07812 -0.22848,-0.20892 -1.10262,-1.24984 -1.30468,-1.84766 -0.75484,-0.76159 -0.87495,-1.7805 -1.01367,-2.82031 0.063,-0.98426 -0.10112,-1.53349 -0.57813,-2.12109 -0.63406,-0.86077 -0.92936,-0.88289 -1.73828,-1.74414 -0.48832,-0.16335 -1.9898,-1.09891 -1.04297,-1.16211 1.03803,-0.0362 2.0423,0.11555 2.63672,0.58007 0.6858,0.59565 1.68655,1.12355 2.17187,2.03516 0.52455,0.42448 0.19967,1.37318 0.28907,2.09766 -0.0254,0.72156 -0.009,1.40139 0.14453,1.94336 -0.001,0.73439 0.002,1.48253 0,2.20898 0.30878,-0.50093 0.80501,-1.63826 1.30469,-1.30859 0.37378,0.90194 -0.06,2.1077 0.24218,3.05664 0.0455,0.97728 0.23251,-0.56934 0.19141,-1.02149 0.19266,-0.68788 0.50658,-1.02611 0.58008,0 0.36349,0.42948 0.29406,1.31953 0.28906,2.03516 -0.28443,1.62699 0.25641,-0.18794 0.29101,-0.6543 0.0998,-0.4291 0.3815,-1.92678 0.86915,-0.79883 0.40577,0.18263 0.6608,1.2488 1.1582,1.59961 0.22395,0.77113 0.12493,-1.10555 0.14453,-1.51562 0.0377,-1.10826 -0.0461,-2.09058 -0.28906,-2.91797 -0.22575,-0.76864 -0.4475,-2.14153 -0.14453,-0.6543 0.46537,0.75311 0.53465,1.50677 1.1582,2.32617 0.52774,1.27865 1.87302,0.74917 1.30273,-0.72851 -0.0651,-0.39413 -1.10848,-1.29194 -0.28906,-0.58008 0.61143,0.26579 1.19211,1.02484 1.01367,-0.38086 -0.13037,-0.82565 -0.55748,-1.79554 -1.01367,-2.38086 -0.0373,-0.67706 -0.7941,-1.27539 -0.7793,-1.61328 -1.05363,-0.59692 -1.6933,-1.54796 -2.84765,-1.86523 -0.81602,-0.37098 -1.70528,-0.6611 -2.45703,-1.02735 -0.93122,-0.006 -2.13516,0.35112 -2.89649,0 -0.28213,-0.41546 -1.34805,-0.68452 -1.52148,-1.01758 0.23316,-0.31299 1.27398,-0.84454 2.24609,-0.87304 l 2.17188,0 c 0.64672,0.45574 0.57328,1.59124 1.03125,2.26367 0.23441,0.41339 0.80637,-1.26258 1.57617,-0.51758 0.3915,0.50571 0.93487,0.98735 1.30469,1.59766 -0.20219,-0.0862 0.60877,-1.5236 0.86914,-0.43555 0.25715,0.6385 0.7951,1.23206 1.30273,1.59766 0.49941,-1.096 0.87965,-0.0961 1.44922,0.58203 0.29924,0.41401 0.67433,2.78004 0.57812,1.18945 0.20446,-0.63905 0.36932,-1.7152 0.72266,-2.16406 0.55593,0.30826 1.25756,1.66358 1.16016,0.24609 0.0172,-0.91102 -0.52132,-1.24525 -0.86719,-1.88672 -0.36866,-0.63196 -0.87248,-1.29134 -1.30469,-1.89062 -0.14064,-0.10009 -0.31499,-0.25337 -0.46875,-0.38086 0.11425,-0.0944 0.18588,-0.39689 0.17969,-1.07227 -0.39257,-0.6332 -0.69412,-1.63102 -1.44922,-2.17968 -0.59412,-0.60105 -1.93197,-0.55042 -2.13086,-1.21289 -0.24857,-0.48829 1.43146,-0.042 1.8418,0.48632 1.08835,0.67959 -0.55128,-0.56548 -0.58008,-0.87304 -0.31079,-0.61096 -0.87775,-1.29107 -1.30273,-2.03516 -0.26805,-0.92846 2.57589,-0.0541 2.17187,-0.14453 -0.29657,-0.91642 -1.9852,-1.22561 -0.43359,-1.74414 0.62944,-0.0968 1.49272,0.17862 0.72265,-0.14649 -0.73868,-0.0824 -1.80749,0.16845 -2.3164,-0.14453 0.0977,-0.72277 1.34705,-0.89069 2.02734,-1.01757 -0.79746,0.0193 -1.48284,-0.24224 -2.32226,-0.14454 -1.47938,0.40663 -1.0995,-0.79001 0.004,-1.01758 0.67459,-0.0726 2.22582,-0.81229 1.16016,-1.3086 -1.32273,0.13861 -2.63342,-0.53063 -3.6211,0.29102 -0.91557,0.21606 -1.63261,0.48835 -2.1582,1.25195 -0.42119,-0.10983 -0.9961,1.05853 -1.46289,1.21876 -0.6087,0.71554 -2.03343,1.03189 -1.88281,-0.58203 0.33432,-1.19114 1.85623,-0.35699 2.3164,-1.01759 0.99245,-0.80037 0.0157,-2.05188 0.14454,-2.90625 -0.0403,-0.35793 0.11587,-0.65197 -0.14454,-1.38086 -0.26977,-0.97724 -0.71375,-1.69888 -1.01367,-2.54297 -0.4905,-0.68849 -1.05,-1.6153 -1.85351,-1.74414 z m -20.03907,31.19533 c -0.0137,0.0716 -0.0114,0.10366 0.0195,0.0527 -0.008,-0.0173 -0.0119,-0.0354 -0.0195,-0.0527 z m 3.57032,-18.96876 c -0.0339,0.0881 -0.0307,0.18164 0.0723,0.27344 -0.012,-0.10841 -0.0434,-0.19038 -0.0723,-0.27344 z m -2.21485,-5.65625 c 0.5147,0.0287 0.98824,0.0601 0.83789,0.25976 -0.26536,-0.10895 -0.54833,-0.1956 -0.83789,-0.25976 z m 22.58985,9.55274 c 0.6691,0.007 1.34958,0.0404 2.0039,0.01 1.03574,0.47629 3.04968,0.35721 3.76563,1.1621 0.52228,0.29794 1.01167,0.80282 1.44726,1.59961 0.11812,0.19475 0.23966,0.39 0.35743,0.56836 -0.48462,-0.39196 -0.99442,-0.7507 -1.51563,-0.85937 -0.96124,-0.20895 -1.3464,-0.93979 -2.31641,-1.3086 -1.16619,-0.12382 -1.7141,0.64251 -2.42187,0.83008 0.18164,-0.26978 -0.75944,-1.04527 -1.49024,-0.83008 -0.51488,-0.32033 -3.98324,-0.65102 -1.76562,-1.01757 0.60876,-0.14143 1.26645,-0.16097 1.93555,-0.1543 z m 0.004,1.61914 c 0.32217,0.0214 0.62011,0.1489 0.69532,0.42578 0.15797,0.0352 0.26879,0.0415 0.36523,0.0391 -0.43251,0.25624 -1.35488,0.0214 -1.95898,0.10547 -0.24364,-0.34853 0.36149,-0.60604 0.89843,-0.57031 z m -18.75,2.82422 c 0.40199,0.0328 -0.43664,1.36354 -0.54297,1.67187 l 0,2.61524 c 0.0129,0.0312 0.036,0.037 0.0566,0.0488 -0.33505,0.36491 -0.60143,0.84873 -0.92578,1.25976 -0.36851,0.19111 -0.62737,0.58182 -0.86914,0.96485 0.007,-0.81948 0.0302,-1.64665 -0.14453,-2.39063 -0.12753,-1.06474 0.27038,-1.81935 0.86914,-2.49805 0.39869,-0.59337 0.60153,-1.16929 1.30274,-1.59961 0.11385,-0.055 0.19648,-0.0769 0.2539,-0.0723 z m 1.63282,1.81445 c 0.0994,-0.005 0.19934,0.0154 0.29296,0.0645 0.44534,0.21034 0.77938,0.60538 1.25,0.77343 0.50493,0.16487 1.03373,0.26636 1.55665,0.36914 0.34992,0.062 0.42866,-0.79514 0.8457,-0.35742 0.24932,0.40181 0.20212,0.892 0.16992,1.3418 0.0105,0.32672 0.14819,0.74389 0.45312,0.88281 0.58185,0.10109 0.63095,-0.51376 0.84961,-0.87305 0.25031,-0.4704 0.76353,-0.10024 0.86524,0.27149 0.35605,0.59229 0.66938,1.26306 0.58398,1.9707 -0.0706,0.52074 0.0193,1.12892 -0.4082,1.52149 -0.27635,0.31513 -0.5998,0.5935 -0.97266,0.79101 -0.30848,0.15185 -0.78754,0.30587 -1.0625,0.0469 -0.12327,-0.52971 -0.22355,-1.05666 -0.28125,-1.59571 -0.22125,-0.61534 -0.45475,0.37104 -0.79882,0.30274 -0.29065,-0.18617 -0.43188,-0.58221 -0.57227,-0.89844 -0.19335,-0.42323 -0.3737,-0.85237 -0.55273,-1.28125 -0.23039,-0.32207 -0.1963,-0.77409 -0.49414,-1.05078 -0.37405,-0.27313 -0.61538,0.28102 -0.75,0.55078 -0.24011,0.33105 -0.10201,0.76 -0.29297,1.10156 -0.2285,0.49613 -0.68087,0.0319 -0.80274,-0.28515 -0.30932,-0.45372 -0.36959,-1.01014 -0.40039,-1.54297 -0.124,-0.51061 -0.2105,-1.01589 -0.0879,-1.53906 0.0255,-0.31162 0.31103,-0.54897 0.60938,-0.56446 z"
       id="path4386" />
    <path
       inkscape:connector-curvature="0"
       id="path4388"
       style="font-style:normal;font-variant:normal;font-weight:normal;font-stretch:normal;font-size:70px;line-height:125%;font-family:Ubuntu;-inkscape-font-specification:Ubuntu;text-align:start;letter-spacing:0px;word-spacing:0px;writing-mode:lr-tb;text-anchor:start;display:inline;fill:#afafaf;fill-opacity:1;stroke:#000000;stroke-width:1px;stroke-linecap:butt;stroke-linejoin:miter;stroke-opacity:1"
       d="m 234.24551,545.65695 q -6.02,-0.14 -8.54,-2.59 -2.52,-2.45 -2.52,-7.63 l 0,-43.68 6.51,-1.12 0,43.75 q 0,1.61 0.28,2.66 0.28,1.05 0.91,1.68 0.63,0.63 1.68,0.98 1.05,0.28 2.59,0.49 l -0.91,5.46 z" />
    <path
       inkscape:connector-curvature="0"
       style="font-style:normal;font-variant:normal;font-weight:normal;font-stretch:normal;font-size:70px;line-height:125%;font-family:Ubuntu;-inkscape-font-specification:Ubuntu;text-align:start;letter-spacing:0px;word-spacing:0px;writing-mode:lr-tb;text-anchor:start;display:inline;fill:#afafaf;fill-opacity:1;stroke:#000000;stroke-width:1px;stroke-linecap:butt;stroke-linejoin:miter;stroke-opacity:1"
       d="m 256.05688,358.07216 -10.20899,2.9375 0,10.20703 -6.29492,1.25781 c 0,0 0.13985,117.59694 0,118.15626 l 4.10352,1.52344 0.76953,5.38867 c 0.79333,-0.32667 1.98364,-0.63016 3.57031,-0.91016 1.63333,-0.32667 3.52325,-0.48828 5.66992,-0.48828 1.68,0 3.03388,0.2562 4.06055,0.76953 1.07333,0.46667 1.91286,1.11899 2.51953,1.95899 0.60667,0.79333 1.02644,1.72745 1.25977,2.80078 0.23333,1.02667 0.34961,2.07706 0.34961,3.15039 l 0,1.82031 c -0.18667,-0.0467 -0.5138,-0.11764 -0.98047,-0.21094 -0.46667,-0.0933 -1.02636,-0.18599 -1.67969,-0.27929 -0.60667,-0.14 -1.25898,-0.23455 -1.95898,-0.28125 -0.7,-0.0933 -1.37792,-0.13867 -2.03125,-0.13867 -2.05333,0 -4.01224,0.2089 -5.87891,0.6289 -1.86667,0.42 -3.50039,1.07427 -4.90039,1.96094 -1.4,0.88667 -2.51938,2.05333 -3.35938,3.5 -0.79333,1.44667 -1.1914,3.17302 -1.1914,5.17969 0,2.1 0.35078,3.89729 1.05078,5.39062 0.7,1.49333 1.67945,2.70534 2.93945,3.63867 1.26,0.88667 2.7538,1.54094 4.48047,1.96094 1.72667,0.42 3.61659,0.62891 5.66992,0.62891 1.44667,0 2.89318,-0.069 4.33985,-0.20899 1.49333,-0.0933 2.87086,-0.20961 4.13086,-0.34961 1.26,-0.14 2.37937,-0.27992 3.35937,-0.41992 1.02667,-0.18667 1.82086,-0.32662 2.38086,-0.41992 l 0,-22.75 c 0,-2.05333 -0.2345,-3.92156 -0.70117,-5.60156 -0.46667,-1.72667 -1.25891,-3.19683 -2.37891,-4.41016 l 7.02735,-4.04492 0,-127.41603 -5.62891,-2.27343 -5.55859,1.33007 -0.0352,-1.33007 -4.89453,-2.65625 z m -0.29102,152.91212 c 1.49333,0 2.75458,0.0926 3.78125,0.27929 1.07333,0.14 1.84193,0.32722 2.3086,0.56055 l 0,10.84961 c -0.79333,0.18667 -1.79644,0.32662 -3.00977,0.41992 -1.16667,0.0467 -2.52055,0.0703 -4.06055,0.0703 -2.56667,0 -4.59651,-0.44341 -6.08984,-1.33008 -1.49333,-0.93332 -2.24023,-2.56706 -2.24023,-4.90039 0,-1.26 0.30348,-2.26309 0.91015,-3.00976 0.60667,-0.79333 1.35357,-1.40031 2.24024,-1.82031 0.93333,-0.46667 1.93643,-0.77016 3.00976,-0.91016 1.12,-0.14 2.17039,-0.20898 3.15039,-0.20898 z"
       id="path4390" />
    <path
       inkscape:connector-curvature="0"
       id="path4392"
       style="font-style:normal;font-variant:normal;font-weight:normal;font-stretch:normal;font-size:70px;line-height:125%;font-family:Ubuntu;-inkscape-font-specification:Ubuntu;text-align:start;letter-spacing:0px;word-spacing:0px;writing-mode:lr-tb;text-anchor:start;display:inline;fill:#afafaf;fill-opacity:1;stroke:#000000;stroke-width:1px;stroke-linecap:butt;stroke-linejoin:miter;stroke-opacity:1"
       d="m 285.48004,542.06358 -6.51,0 0,-36.4 6.51,0 0,36.4 z m -3.29,-42.98 q -1.75,0 -3.01,-1.12 -1.19,-1.19 -1.19,-3.15 0,-1.96 1.19,-3.08 1.26,-1.19 3.01,-1.19 1.75,0 2.94,1.19 1.26,1.12 1.26,3.08 0,1.96 -1.26,3.15 -1.19,1.12 -2.94,1.12 z" />
    <path
       inkscape:connector-curvature="0"
       style="font-style:normal;font-variant:normal;font-weight:normal;font-stretch:normal;font-size:70px;line-height:125%;font-family:Ubuntu;-inkscape-font-specification:Ubuntu;text-align:start;letter-spacing:0px;word-spacing:0px;writing-mode:lr-tb;text-anchor:start;display:inline;fill:#afafaf;fill-opacity:1;stroke:#000000;stroke-width:1px;stroke-linecap:butt;stroke-linejoin:miter;stroke-opacity:1"
       d="m 389.44164,304.41981 c -0.41956,0 -2.51757,0.49024 -2.51757,0.49024 l 0,0.69922 c 0,0 -1.11951,0.559 -1.53907,0.6289 -0.41957,0.0699 -1.67773,0.0703 -1.67773,0.0703 l -1.39844,0.34961 -0.27929,2.02735 -0.28126,0.27929 0.21094,2.65625 0,1.39844 0.2793,1.25781 -0.2793,1.95899 -0.14062,9.92773 -2.09766,0.13868 -0.2793,20.69531 -2.09765,0.69922 -0.2793,2.65625 -0.14062,10.9082 -2.51758,0.55859 -2.31445,128.98634 c 1.77481,-0.56208 2.84987,-1.13244 4.60546,-1.62109 6.56643,-1.69485 13.33601,-3.40038 20.16993,-2.66407 4.11987,0.44183 8.52286,2.29384 10.54882,6.10938 3.41199,7.14117 4.4532,14.94896 3.42774,23.20508 -0.62323,3.9215 -1.64966,7.18695 -3.23633,10.12695 l -11.33984,-11.54882 c 1.30667,-0.7 2.54426,-1.49419 3.71093,-2.38086 1.16667,-0.88667 2.19341,-1.86612 3.08008,-2.93945 0.93333,-1.07333 1.65659,-2.26364 2.16992,-3.57031 0.56,-1.30667 0.83985,-2.77683 0.83985,-4.41016 0,-1.44667 -0.2562,-2.82223 -0.76953,-4.1289 -0.51333,-1.30667 -1.28388,-2.428 -2.31055,-3.36133 -0.98,-0.93333 -2.21761,-1.68024 -3.71094,-2.24024 -1.44667,-0.56 -3.10208,-0.83984 -4.96875,-0.83984 -1.82,0 -3.50101,0.27984 -5.04101,0.83984 -1.49333,0.56 -2.79993,1.35419 -3.91993,2.38086 -1.07333,1.02667 -1.93651,2.28597 -2.58984,3.7793 -0.60667,1.49333 -0.91016,3.17435 -0.91016,5.04101 0,3.68669 1.72636,7.25566 5.17969,10.70899 -1.35333,0.65333 -2.65992,1.42388 -3.91992,2.31055 -1.26,0.84 -2.37937,1.84309 -3.35938,3.00976 -0.93333,1.12 -1.68023,2.40294 -2.24023,3.84961 -0.56,1.4 -0.83984,3.01008 -0.83984,4.83008 0,1.44667 0.2562,2.96411 0.76953,4.55078 0.51333,1.58667 1.37651,3.05683 2.58984,4.41016 1.26,1.30667 2.89372,2.40239 4.90039,3.28906 2.00667,0.84 4.52722,1.25976 7.56055,1.25977 3.26667,0 6.15969,-0.58335 8.67969,-1.75 2.52,-1.21335 4.73706,-2.77613 6.65039,-4.68946 0.88667,0.98 1.7262,1.95944 2.51953,2.93946 0.84,0.98 1.53961,1.93776 2.09961,2.87109 l 6.86133,0 c -0.88667,-1.63333 -2.03164,-3.31435 -3.43164,-5.04102 -1.35333,-1.72667 -2.84519,-3.47667 -4.47852,-5.25 1.4,-2.24 2.47208,-4.47875 3.21875,-6.71875 0.79333,-2.28667 1.28312,-4.38652 1.75977,-7.0664 0.97617,-6.73683 1.39134,-12.6107 -0.65235,-18.22657 -0.84761,-2.70837 -2.16707,-4.53432 -2.68359,-7.12695 l -2.37695,-128.92384 -2.51758,-0.55859 -0.14063,-10.9082 -0.27929,-2.65625 -2.09766,-0.69922 -0.2793,-20.69531 -2.09765,-0.13868 -0.14063,-9.92773 -0.2793,-1.95899 0.2793,-1.25781 0,-1.39844 0.21094,-2.65625 -0.28125,-0.27929 -0.2793,-2.02735 -1.39844,-0.34961 c 0,0 -1.25817,-4.1e-4 -1.67773,-0.0703 -0.41957,-0.0699 -1.53906,-0.6289 -1.53906,-0.6289 l 0,-0.69922 c 0,0 -2.09801,-0.49024 -2.51758,-0.49024 l -1.81836,0 -1.27148,0.0703 -1.26954,-0.0703 -1.81836,0 z m 4.86719,191.23439 c 1.82,0 3.24286,0.55969 4.26953,1.67968 1.07333,1.07335 1.60938,2.40357 1.60938,3.99024 0,1.21333 -0.20891,2.30906 -0.62891,3.28906 -0.37333,0.93333 -0.91133,1.79652 -1.61133,2.58985 -0.65333,0.79333 -1.44557,1.49293 -2.3789,2.09961 -0.88667,0.60666 -1.84443,1.16831 -2.8711,1.68164 -3.17333,-2.89333 -4.75976,-5.8573 -4.75976,-8.89063 0,-1.82 0.538,-3.33745 1.61133,-4.55078 1.12,-1.26 2.70643,-1.88867 4.75976,-1.88867 z m -3.85156,21.13867 13.65039,13.79101 c -1.49333,1.54001 -3.21969,2.73032 -5.17969,3.57032 -1.91333,0.84 -4.01216,1.25976 -6.29883,1.25976 -1.77333,0 -3.26713,-0.2562 -4.48046,-0.76953 -1.16667,-0.56 -2.12443,-1.23792 -2.8711,-2.03125 -0.74667,-0.84 -1.2827,-1.75047 -1.60937,-2.73047 -0.32667,-0.98 -0.49024,-1.88851 -0.49024,-2.72851 0,-1.49333 0.21086,-2.79992 0.63086,-3.91992 0.46667,-1.12 1.05,-2.07777 1.75,-2.8711 0.7,-0.84 1.4686,-1.53961 2.3086,-2.09961 0.88667,-0.56 1.74984,-1.0507 2.58984,-1.4707 z"
       id="path4197" />
    <path
       style="font-style:normal;font-variant:normal;font-weight:normal;font-stretch:normal;font-size:70px;line-height:125%;font-family:Ubuntu;-inkscape-font-specification:Ubuntu;text-align:start;letter-spacing:0px;word-spacing:0px;writing-mode:lr-tb;text-anchor:start;display:inline;fill:#afafaf;fill-opacity:1;stroke:#000000;stroke-width:1px;stroke-linecap:butt;stroke-linejoin:miter;stroke-opacity:1"
       d="m 464.60494,302.51427 -0.38867,0.12109 -21.97656,188.50196 -0.0176,0.59765 0,47.8086 6.78906,0 0,-17.99024 5.39063,0 c 3.40667,-10e-6 6.46325,-0.27984 9.16992,-0.83984 2.70667,-0.56 4.9927,-1.44685 6.85937,-2.66016 1.91333,-1.26 3.35985,-2.86812 4.33985,-4.82812 0.51334,-1.00334 1.08708,-2.20067 1.40625,-3.21485 0.47542,-1.23291 1.00945,-2.9093 1.63671,-5.59179 0.46234,2.61774 1.13655,5.09917 1.47657,6.55664 0.57763,2.47595 1.16321,4.04557 1.86328,6.3789 0.74666,2.28667 1.86604,4.26922 3.35937,5.94922 1.49333,1.68 3.38326,3.01024 5.66993,3.99024 2.33333,0.93333 5.08643,1.40039 8.25976,1.40039 2.52,0 4.7607,-0.23255 6.7207,-0.69922 2.00667,-0.46667 3.40589,-0.91008 4.19922,-1.33008 l -0.91015,-5.46094 c -0.79333,0.37333 -1.98169,0.77141 -3.56836,1.19141 -1.54,0.37333 -3.45357,0.55859 -5.74024,0.55859 -4.06,0 -7.0476,-0.97945 -8.96093,-2.93945 -1.91333,-1.96 -3.00907,-4.82938 -3.28907,-8.60938 l 24.91992,0 9.00196,0 0,4.71289 0,8.11915 c 0,2.42667 0.18526,4.57473 0.55859,6.4414 0.42,1.81997 1.11961,3.35914 2.09961,4.61914 0.98,1.26 2.26489,2.21777 3.85156,2.8711 1.63333,0.60667 3.68683,0.9082 6.16016,0.9082 2.1,0 3.96628,-0.2562 5.59961,-0.76953 1.63333,-0.46667 2.77636,-0.86277 3.42969,-1.18946 l -1.25977,-5.39062 c -0.46667,0.18667 -1.3062,0.5138 -2.51953,0.98047 -1.16667,0.42 -2.73141,0.63086 -4.69141,0.63086 -1.12,0 -2.09945,-0.13992 -2.93945,-0.41992 -0.84,-0.28 -1.53961,-0.74706 -2.09961,-1.40039 -0.56,-0.7 -0.97976,-1.63412 -1.25976,-2.80079 -0.28,-1.21333 -0.41993,-2.72882 -0.41993,-4.54882 l 0,-12.76368 13.78907,0 0,-5.25 -13.78907,0 -0.0664,-15.46289 -1.54883,-86.56054 0.64062,-0.66992 -0.57812,-0.40235 -0.0352,-13.98242 0.63086,-0.36719 0.38281,-0.40234 -0.0508,-0.4375 -1.08398,0 -0.14063,-3.14453 0.26172,-0.17578 -0.45312,-0.31446 -0.28125,-4.77148 -0.61133,-0.22656 -0.24414,-1.73047 -0.24414,1.74609 -0.56055,0.19336 -0.22656,4.58008 -1.04883,-0.14063 -0.0351,-2.79687 0.29687,-0.38477 -5.38477,-17.8457 -0.0351,-0.66406 -0.31445,0.0176 0.0527,-2.42969 0.47266,-0.2793 -0.50782,-0.31445 -0.46093,-3.39063 -0.45899,3.39063 -0.50781,0.31445 0.47266,0.2793 0.0527,2.42969 -0.31641,-0.0176 -0.0352,0.66406 -5.38282,17.8457 0.29688,0.38477 -0.0352,2.79687 -1.04883,0.14063 -0.22851,-4.58008 -0.55859,-0.19336 -0.24414,-1.74609 -0.2461,1.73047 -0.61133,0.22656 -0.27929,4.77148 -0.45508,0.31446 0.26367,0.17578 -0.14063,3.14453 -1.08398,0 -0.0527,0.4375 0.38476,0.40234 0.62891,0.36719 -0.0352,13.98242 -0.57617,0.40235 0.63867,0.66992 -1.48242,86.61328 -0.0566,1.78906 -1.86914,-0.83398 c -1.87832,-0.77 -4.04219,-1.15625 -6.49219,-1.15625 -2.1,0 -4.1535,0.39807 -6.16015,1.1914 -1.00334,0.39667 -2.07232,0.95383 -2.95899,1.54883 l -0.37099,-2.58789 -22.15039,-188.06055 -0.44727,-0.12109 z m 47.05469,88.62109 c 0.0838,-0.005 0.16986,-4.1e-4 0.2539,0.0176 l 0.35157,0.11719 c 0.40275,0.2355 0.56642,0.62056 0.71289,1.03125 l 0.008,9.17773 -2.53711,0 0.0605,-9.27343 0.01,-0.12696 c 0.0106,-0.34792 0.55423,-0.9056 1.14063,-0.94335 z m 4.01172,0 c 0.0838,-0.005 0.16791,-4.1e-4 0.25195,0.0176 l 0.35352,0.11719 c 0.40275,0.2355 0.56446,0.62056 0.71093,1.03125 l 0.01,9.17773 -2.53906,0 0.0625,-9.27343 0.008,-0.12696 c 0.0106,-0.34792 0.55618,-0.9056 1.14258,-0.94335 z m 4.01172,0 c 0.0838,-0.005 0.16791,-4.1e-4 0.25195,0.0176 l 0.35156,0.11719 c 0.40275,0.2355 0.56642,0.62056 0.71289,1.03125 l 0.01,9.17773 -2.53906,0 0.0625,-9.27343 0.008,-0.12696 c 0.0106,-0.34792 0.55618,-0.9056 1.14258,-0.94335 z m -23.06055,104.93946 c 2.66001,0 4.73714,0.95581 6.23047,2.86914 1.54,1.86667 2.28693,4.27093 2.24023,7.21093 l -18.06054,0 c 0.13999,-1.26 0.41986,-2.4976 0.83984,-3.71093 0.46667,-1.21333 1.09729,-2.28542 1.89062,-3.21875 0.79333,-0.93333 1.7511,-1.68024 2.8711,-2.24024 1.16667,-0.60667 2.49496,-0.91015 3.98828,-0.91015 z m -40.96094,0.41992 c 1.82,0 3.54635,0.13992 5.17969,0.41992 1.63333,0.28 3.0562,0.79239 4.26953,1.53906 1.26,0.7 2.24141,1.65777 2.94141,2.8711 0.74667,1.21333 1.11914,2.75247 1.11914,4.61914 0,1.96 -0.35078,3.57006 -1.05078,4.83008 -0.7,1.25999 -1.7031,2.26309 -3.00977,3.00976 -1.26,0.7 -2.82278,1.21435 -4.68945,1.54102 -1.86667,0.28 -3.96745,0.41992 -6.30078,0.41992 l -5.10938,0 0,-19.04102 c 1.54,-0.14 3.75706,-0.20898 6.65039,-0.20898 z"
       id="path4404"
       inkscape:connector-curvature="0" />
    <path
       inkscape:connector-curvature="0"
       style="font-style:normal;font-variant:normal;font-weight:normal;font-stretch:normal;font-size:70px;line-height:125%;font-family:Ubuntu;-inkscape-font-specification:Ubuntu;text-align:start;letter-spacing:0px;word-spacing:0px;writing-mode:lr-tb;text-anchor:start;display:inline;fill:#afafaf;fill-opacity:1;stroke:#000000;stroke-width:1px;stroke-linecap:butt;stroke-linejoin:miter;stroke-opacity:1"
       d="m 563.27563,490.54287 c -2.1,0 -4.15349,0.39808 -6.16016,1.19141 -2.00667,0.79333 -3.77836,1.98168 -5.31836,3.56836 -1.54,1.58666 -2.7776,3.59481 -3.71093,6.02148 -0.93333,2.38 -1.4004,5.18039 -1.4004,8.40039 0,2.75333 0.35079,5.29558 1.05079,7.62891 0.74667,2.28667 1.86604,4.26922 3.35937,5.94922 1.49333,1.68 3.38325,3.01023 5.66992,3.99023 2.33333,0.93333 5.08644,1.40039 8.25977,1.40039 2.52,0 4.7607,-0.23255 6.7207,-0.69922 2.00667,-0.46667 3.40589,-0.91008 4.19922,-1.33008 l -0.91016,-5.46093 c -0.79333,0.37333 -1.98168,0.7714 -3.56835,1.1914 -1.54,0.37333 -3.45357,0.5586 -5.74024,0.5586 -4.06,0 -7.04761,-0.97946 -8.96094,-2.93946 -1.91333,-1.96 -3.00906,-4.82937 -3.28906,-8.60937 l 24.91992,0 c 0.0467,-0.37333 0.0703,-0.77141 0.0703,-1.19141 l 0,-1.11914 c -1e-5,-6.25333 -1.3066,-10.89636 -3.91993,-13.92969 -2.61333,-3.08 -6.37148,-4.62109 -11.27148,-4.62109 z m -0.0703,5.53125 c 2.66,0 4.73713,0.95581 6.23046,2.86914 1.54001,1.86667 2.28694,4.27094 2.24024,7.21094 l -18.06055,0 c 0.14,-1.26 0.41985,-2.49761 0.83985,-3.71094 0.46667,-1.21333 1.09729,-2.28542 1.89062,-3.21875 0.79333,-0.93333 1.75109,-1.68023 2.8711,-2.24023 1.16666,-0.60667 2.49495,-0.91016 3.98828,-0.91016 z"
       id="path4205" />
    <path
       inkscape:connector-curvature="0"
       style="display:inline;fill:#afafaf;fill-opacity:1;fill-rule:evenodd;stroke:#000000;stroke-width:1px;stroke-linecap:butt;stroke-linejoin:miter;stroke-opacity:1"
       d="m 322.12719,302.00184 c -0.27682,2.09375 -0.28041,3.85048 -0.32031,6.0625 -0.002,2.0115 -0.27565,3.98644 -0.38281,5.98633 -0.42545,1.30421 0.62514,3.2451 -0.83985,3.47266 -0.15052,1.70291 -1.77039,-1.0441 -2.83203,0.0703 -0.59443,0.60678 -0.0999,1.36288 -1.26953,1.33008 -0.47624,0.91594 -0.33162,2.07263 -1.9043,1.87695 -2.0048,0.96867 1.49743,1.59322 1.25,2.65235 -0.72915,1.35853 -2.72056,1.71163 -4.01953,2.57226 -1.99602,0.90722 -4.08422,1.70551 -6.03515,2.66602 -0.8809,0.24481 -4.05678,1.21247 -1.69141,1.70898 1.0937,0.83511 -1.60053,0.78115 -2.07227,1.37695 -1.63549,0.72442 -3.38995,1.42083 -4.75586,2.56446 0.30395,1.68913 2.86109,1.95373 4.38672,2.1875 1.39919,-0.5495 3.73333,0.7191 2.03125,1.99414 -2.024,0.30091 -1.26123,3.26715 0.49414,3.10351 1.62898,0.29706 3.29077,0.65467 4.875,1.20118 0.94368,0.34872 2.08588,0.42333 2.17188,1.16406 0.13599,2.11263 -0.0759,4.51655 0.15234,7.18555 0.0965,3.4569 0.98083,6.81559 1.4043,10.23632 0.71453,2.84355 0.6743,5.84507 1.72656,8.61719 0.88747,2.19488 0.6589,4.53027 1.33399,6.76953 0.0977,0.69882 0.0491,1.64805 0.006,2.38281 1.21694,21.3261 -2.51632,42.82487 -4.14844,60.96876 -1.85044,12.85173 -4.98623,25.61934 -4.72852,38.72071 -0.19542,0.1 -0.27904,0.2507 -0.47851,0.3164 -0.27945,0.0918 -0.45679,0.19393 -0.72266,0.30079 -0.1952,0.079 -0.3655,0.17224 -0.58398,0.24804 -0.27101,0.1573 -0.55898,0.22505 -0.8418,0.31055 -0.17115,0.0791 -0.38026,0.0528 -0.55273,0.13086 -0.19588,0.0193 -0.36179,0.1185 -0.54688,0.1582 -0.19006,0.0653 -0.37052,0.11634 -0.56641,0.17774 -0.0587,0.0748 -0.18636,0.19869 -0.19336,0.35156 -0.0539,0.20273 0.0832,0.3667 0.23047,0.49609 0.15587,0.10446 0.22807,0.1864 0.3711,0.2461 0.07,0.086 0.24493,0.2209 0.29882,0.2832 0.15292,0.0318 0.22441,0.17391 0.35352,0.30078 0.1059,0.18932 0.16347,0.35441 0.23047,0.58203 0.0541,0.22042 0.0494,0.50394 0,0.72461 -0.0619,0.13291 -0.1913,0.2582 -0.2832,0.38867 -0.0828,0.0823 -0.12519,0.15714 -0.21289,0.21094 -0.10116,0.21456 -0.22504,0.44717 -0.21094,0.70703 -0.0207,0.22201 0.15861,0.2908 0.22851,0.47656 0.10542,0.19166 0.35692,0.12912 0.53125,0.22852 0.14027,0.0934 0.31387,0.12009 0.45899,0.21289 0.24277,0.0652 0.48442,0.14952 0.70508,0.22852 0.22632,0.0928 0.4938,0.15644 0.70703,0.26562 0.18099,0.0757 0.40404,0.0967 0.49414,0.24609 0.0627,0.12244 -0.0415,0.27832 -0.0879,0.40625 -0.0251,0.22077 -0.12134,0.36349 -0.17774,0.59961 0.0121,0.21019 -0.0597,0.39455 -0.0351,0.60938 -5e-4,0.26929 -0.006,0.53901 0.0176,0.80273 -0.046,0.23833 -0.0547,0.47578 -0.0527,0.72461 -0.0405,0.24601 -0.0774,0.47934 -0.0879,0.73242 l 0,0.23829 -3.4668,0.73632 c -2.28666,0.46667 -4.20023,0.97907 -5.74023,1.53907 l 0,34.85937 6.50976,0 0,-30.58984 c 0.37333,-0.0933 1.14389,-0.2569 2.31055,-0.49024 1.21333,-0.28 2.42534,-0.41992 3.63867,-0.41992 1.86666,0 3.38411,0.13992 4.55078,0.41992 1.21334,0.23334 2.07652,0.44419 2.58985,0.63086 l 1.11914,-5.66992 c -0.28,-0.0933 -0.72341,-0.186 -1.33008,-0.2793 -0.56,-0.14 -1.18867,-0.25826 -1.88867,-0.35156 -0.7,-0.14 -1.42325,-0.2327 -2.16992,-0.2793 -0.7,-0.0933 -1.3305,-0.14048 -1.875,-0.0508 l 0.16406,-2.38086 8.80078,-0.19921 0,2.47265 5.87695,-0.0391 -0.002,-2.43359 8.80274,0.19921 0.14843,2.47071 -1.77734,1.01172 c -2.00666,0.79333 -3.78031,1.98166 -5.32031,3.56836 -1.54,1.58667 -2.77565,3.59481 -3.70899,6.02148 -0.93334,2.38 -1.40039,5.18039 -1.40039,8.40039 0,2.75333 0.35078,5.29558 1.05078,7.62891 0.74667,2.28666 1.86605,4.26922 3.35938,5.94922 1.49333,1.68 3.38325,3.01023 5.66992,3.99023 2.33333,0.93334 5.08645,1.40039 8.25976,1.40039 2.52002,0 4.76071,-0.23255 6.72071,-0.69922 2.00667,-0.46666 3.40589,-0.91008 4.19922,-1.33008 l -0.91016,-5.46093 c -0.79333,0.37333 -1.98364,0.7714 -3.57031,1.1914 -1.54,0.37333 -3.45357,0.5586 -5.74024,0.5586 -4.06,0 -7.04565,-0.97946 -8.95898,-2.93946 -1.91333,-1.96 -3.01102,-4.82937 -3.29102,-8.60937 l 24.91993,0 c 0.0467,-0.37333 0.0703,-0.77141 0.0703,-1.19141 l 0,-1.11914 c 0,-6.25333 -1.30659,-10.89636 -3.91992,-13.92969 -2.61333,-3.08 -6.36964,-4.62081 -11.33008,-4.60351 l -0.0606,-0.22071 c -0.0105,-0.25308 -0.0474,-0.48641 -0.0879,-0.73242 0.002,-0.24883 -0.007,-0.48628 -0.0527,-0.72461 0.0237,-0.26372 0.0181,-0.53344 0.0176,-0.80273 0.0245,-0.21483 -0.0473,-0.39919 -0.0351,-0.60938 -0.0564,-0.23612 -0.15264,-0.37884 -0.17774,-0.59961 -0.0464,-0.12793 -0.15059,-0.28381 -0.0879,-0.40625 0.0901,-0.14934 0.31315,-0.17039 0.49414,-0.24609 0.21323,-0.10918 0.48072,-0.17282 0.70704,-0.26562 0.22067,-0.079 0.46426,-0.16332 0.70703,-0.22852 0.14512,-0.0928 0.31871,-0.11949 0.45898,-0.21289 0.17433,-0.0994 0.42387,-0.0368 0.5293,-0.22852 0.0699,-0.18576 0.24921,-0.25455 0.22851,-0.47656 0.0141,-0.25986 -0.10978,-0.49247 -0.21093,-0.70703 -0.0877,-0.0538 -0.13009,-0.12864 -0.21289,-0.21094 -0.0919,-0.13047 -0.22131,-0.25576 -0.28321,-0.38867 -0.0494,-0.22067 -0.0541,-0.50419 0,-0.72461 0.067,-0.22762 0.12457,-0.39271 0.23047,-0.58203 0.1291,-0.12687 0.2006,-0.26898 0.35352,-0.30078 0.0539,-0.0623 0.23078,-0.1972 0.30078,-0.2832 0.14302,-0.0597 0.21521,-0.14164 0.37109,-0.2461 0.14728,-0.12939 0.28242,-0.29336 0.22852,-0.49609 -0.007,-0.15287 -0.13466,-0.27676 -0.19336,-0.35156 -0.19589,-0.0614 -0.37635,-0.11244 -0.56641,-0.17774 -0.18508,-0.0397 -0.35099,-0.1389 -0.54687,-0.1582 -0.17247,-0.0781 -0.38159,-0.0518 -0.55274,-0.13086 -0.28282,-0.0855 -0.57079,-0.15325 -0.84179,-0.31055 -0.21848,-0.0758 -0.38879,-0.16909 -0.58399,-0.24804 -0.26587,-0.10686 -0.44322,-0.20899 -0.72266,-0.30079 -0.19948,-0.0657 -0.28115,-0.2164 -0.47656,-0.3164 0.2577,-13.10137 -2.88002,-25.86898 -4.73047,-38.72071 -1.63212,-18.14389 -5.36537,-39.64266 -4.14843,-60.96876 -0.0428,-0.73476 -0.0895,-1.68399 0.008,-2.38281 0.67509,-2.23926 0.44457,-4.57465 1.33203,-6.76953 1.05226,-2.77212 1.01203,-5.77364 1.72656,-8.61719 0.42347,-3.42073 1.3078,-6.77946 1.4043,-10.23632 0.22818,-2.66898 0.0163,-5.07292 0.15234,-7.18555 0.086,-0.74073 1.23016,-0.81534 2.17383,-1.16406 1.58423,-0.54651 3.24408,-0.90412 4.87305,-1.20118 1.75538,0.16364 2.51814,-2.8026 0.49414,-3.10351 -1.70208,-1.27504 0.63206,-2.54364 2.03125,-1.99414 1.52564,-0.23377 4.08277,-0.49837 4.38672,-2.1875 -1.36591,-1.14363 -3.12037,-1.84004 -4.75586,-2.56446 -0.47174,-0.5958 -3.16597,-0.54184 -2.07227,-1.37695 2.36537,-0.49651 -0.8105,-1.46417 -1.6914,-1.70898 -1.95093,-0.96051 -4.03914,-1.7588 -6.03516,-2.66602 -1.29897,-0.86063 -3.29038,-1.21373 -4.01953,-2.57226 -0.24743,-1.05913 3.2548,-1.68368 1.25,-2.65235 -1.57267,0.19568 -1.42806,-0.96101 -1.9043,-1.87695 -1.16968,0.0328 -0.6751,-0.7233 -1.26953,-1.33008 -1.06163,-1.11437 -2.67957,1.63264 -2.83008,-0.0703 -1.465,-0.22756 -0.41634,-2.16845 -0.84179,-3.47266 -0.10715,-1.99989 -0.38082,-3.97483 -0.38282,-5.98633 0.0342,-2.06371 -0.41302,-4.06762 -0.26953,-6.0625 z m 3.24805,41.4375 c 1.80635,-0.0205 3.28431,0.0687 5.39453,0.19922 0.33366,4.50322 -0.35159,8.99541 -1.09961,13.42383 -0.19368,4.49577 -0.92395,8.96729 -2.14258,13.30078 -1.35445,4.09453 -1.79401,8.40671 -2.09961,12.66406 -1.07514,12.53506 0.11898,25.11834 0.91211,37.65431 0.59984,6.71096 1.62575,12.63355 2.4375,20.06641 0.99965,7.88434 1.59804,6.59099 -4.8125,6.65429 l -0.54101,-103.90235 c 0.71092,-0.0333 1.34905,-0.0537 1.95117,-0.0606 z m -8.37696,0.0625 c 1.07975,-0.005 2.16214,0.0291 3.58399,0.0957 l 0.25,103.80469 c -6.41054,-0.0633 -6.4059,1.23005 -5.40625,-6.65429 0.81175,-7.43286 1.83766,-13.35545 2.4375,-20.06641 0.79313,-12.53597 1.98725,-25.11925 0.91211,-37.65431 -0.30559,-4.25735 -0.74321,-8.56953 -2.09766,-12.66406 -1.21863,-4.33349 -1.95085,-8.80501 -2.14453,-13.30078 -0.74802,-4.42842 -1.43132,-8.92061 -1.09766,-13.42383 1.40682,-0.087 2.48276,-0.13188 3.5625,-0.13672 z m 6.84961,107.08204 c 1.90986,0.0337 4.01466,0.16742 5.64844,0.26172 0.25029,2.3777 0.36802,4.90576 0.63477,7.28125 0.006,1.50048 0.19985,2.99497 0.50195,4.46485 0.57984,2.59213 0.6681,5.25518 1.08399,7.87304 0.22951,1.10852 0.3526,2.19079 0.3496,3.3125 0.16598,1.19196 0.77038,2.67062 -0.23632,3.66016 -2.51552,0.14175 -5.67132,-0.19561 -8.17774,0.0215 l 0.19531,-26.875 z m -3.39257,0.0977 -0.39844,26.875 c -2.50642,-0.21711 -5.16807,0.0227 -7.6836,-0.11914 -1.00669,-0.98954 -0.4023,-2.4682 -0.23632,-3.66016 -0.003,-1.12171 0.12009,-2.20397 0.34961,-3.3125 0.41588,-2.61786 0.50414,-5.28092 1.08398,-7.87304 0.30209,-1.46989 0.49631,-2.96436 0.50195,-4.46485 0.26675,-2.37549 0.38448,-4.90356 0.63477,-7.28125 1.63378,-0.0944 3.83819,-0.13036 5.74805,-0.16406 z m 17.84765,45.39258 c 2.66,0 4.73714,0.95581 6.23047,2.86914 1.54,1.86667 2.28694,4.27094 2.24024,7.21094 l -18.06055,0 c 0.14,-1.26 0.41984,-2.49761 0.83984,-3.71094 0.46667,-1.21333 1.0973,-2.28542 1.89063,-3.21875 0.79333,-0.93333 1.75109,-1.68023 2.87109,-2.24023 1.16667,-0.60667 2.49495,-0.91016 3.98828,-0.91016 z"
       id="path4202-1" />
    <path
       style="display:inline;fill:#afafaf;fill-opacity:1;fill-rule:evenodd;stroke:#000000;stroke-width:1px;stroke-linecap:butt;stroke-linejoin:miter;stroke-opacity:1"
       d="m 479.75716,414.36451 -1.89817,-60.71066 -1.82951,0.0494 -3.7387,-1.13556 z"
       id="path4448-3"
       inkscape:connector-curvature="0"
       sodipodi:nodetypes="ccccc" />
    <path
       inkscape:connector-curvature="0"
       style="display:inline;fill:#afafaf;fill-opacity:1;fill-rule:evenodd;stroke:#000000;stroke-width:1px;stroke-linecap:butt;stroke-linejoin:miter;stroke-opacity:1"
       d="m 599.8811,387.84169 c -1.23357,0.1363 -2.08036,1.15956 -2.28125,2.43945 -1.04028,0.63908 -0.98898,2.52261 -1.27735,3.72852 -1.59815,-0.67918 -2.99984,1.33435 -2.16015,2.55078 0.13401,1.81229 -2.54187,1.20023 -2.94727,0.0976 -0.58689,-0.72362 -1.04957,-1.30388 -2.16015,-0.88281 -1.31501,0.48691 -0.91292,1.51129 -0.29493,1.96289 -0.50429,2.00802 -2.61607,-1.07242 -3.33984,0.49024 -0.4432,0.78187 -2.28155,0.48366 -2.94531,0 -1.18535,-0.44864 -2.2884,-0.0277 -2.45508,1.08007 -1.37396,1.09523 -1.21087,3.03527 -2.25977,4.31642 -0.49773,1.71255 0.5233,4.83602 -0.78515,6.08398 -1.28743,0.71038 -1.73168,1.84844 -1.96485,3.4336 -0.51016,0.62537 -1.85428,1.60023 -2.65234,0.78516 -0.30166,-1.21847 0.41421,-2.35698 -0.29492,-3.13868 -1.41913,-0.67771 -3.13682,-0.12712 -4.125,0.78516 -0.79948,0.44832 -2.22164,0.67054 -2.65235,0.0977 -0.63,-0.42377 -1.6596,-0.28543 -2.0625,0.29492 -1.82486,1.06662 -2.18027,-1.75799 -3.83007,-1.27735 -0.69763,0.69786 -0.55206,2.09425 -1.96485,2.35547 -1.63524,0.95161 -2.64987,-1.31738 -4.51758,-0.78515 -1.29556,-0.29471 -1.07546,1.78125 -2.45507,0.88281 -1.02581,-0.54282 -2.09848,-1.08876 -2.65235,0.29492 -0.095,1.29347 -0.27032,2.2337 -0.29492,3.5332 -0.64458,0.95433 -1.81627,1.16758 -2.16016,2.64844 -1.48422,1.38135 0.26218,3.28668 1.86524,3.23828 0.69939,0.38208 0.97524,1.07809 1.27734,2.125 0.38893,2.66994 -1.24882,1.97714 -2.0625,0.62305 -0.6567,1.6215 -1.9087,2.91337 -2.25976,4.70898 -0.78655,0.7385 -1.72378,0.81838 -1.375,2.35547 1.13513,0.88312 1.78133,2.35557 1.03711,3.52149 -0.17554,0.68731 -1.4507,0.68076 -1.23243,1.97265 -0.40055,1.74405 -3.29102,0.92251 -4.41992,1.86524 -1.2651,0.31533 -2.26893,0.91696 -2.75195,1.57031 -2.00662,0.57627 0.0619,2.41024 -0.19531,3.69531 -0.01,1.42233 -0.86513,2.46178 -1.66993,2.87891 -0.61849,1.45514 0.51309,2.4519 1.66993,2.74609 0.3206,0.79705 -1.73498,2.19309 -0.0977,2.74805 1.21119,0.50791 2.4898,-1.05278 3.33789,-0.19531 -0.37805,0.85119 -0.69717,2.29998 0.6875,2.64843 1.66774,0.47971 1.92245,-0.55706 1.66992,-1.57031 0.55302,-1.14249 1.36779,-0.65671 0.88477,0.6875 0.29613,1.05247 0.7617,2.50108 1.375,3.14063 0.5316,1.3227 1.1804,2.35792 3.14258,2.06054 1.50266,0.33862 2.33817,-1.06255 3.73242,-0.88476 0.3493,-0.88114 0.86192,-1.23319 1.57226,-1.86328 0.53934,-0.77252 2.05052,0.51523 3.04493,0.39257 1.38526,0.54958 3.83888,0.74253 4.8125,-0.6875 0.86132,-0.55488 2.9444,-0.27938 3.04492,0.88282 0.84932,0.79591 0.77383,2.9487 1.57226,4.12109 0.40038,1.10667 0.6489,2.31381 2.35547,2.25781 1.22032,0.1917 1.95354,-1.36324 3.14453,-0.58984 1.46904,0.70687 3.55176,0.96925 5.5,0.6875 1.14895,-0.60977 2.99855,-0.80106 2.75,-2.64844 -0.12026,-1.69446 0.95996,-2.61076 1.76758,-3.33594 0.82423,-1.03429 1.32561,-2.16234 3.24219,-1.76757 2.22751,0.66941 5.08117,-0.074 7.16992,0.49023 1.06486,0.78717 1.04461,3.56931 0,4.51367 0.10162,0.95228 -2.05082,2.03169 -0.78711,2.65039 0.47294,1.16437 2.52631,1.2342 3.63477,1.57032 -0.0177,-0.79144 1.04004,-0.7217 1.375,-0.19727 1.1693,1.07558 3.79464,1.01836 3.92969,3.04297 0.31929,1.30524 0.24769,3.46471 0,4.9707 -0.29766,2.22326 -0.0469,4.68475 -0.29493,6.70508 -0.11255,2.59214 -0.3916,5.23181 -1.96484,7.06445 -0.84134,0.99555 -2.76549,1.82757 -4.17773,2.38672 -0.82552,0.2651 -1.90924,1.02176 -3.83594,1.41602 l 0,34.85937 6.50976,0 0,-30.58984 c 0.37333,-0.0933 1.14193,-0.25687 2.3086,-0.49024 1.21333,-0.27997 2.42729,-0.41992 3.64062,-0.41992 1.86667,0 3.38411,0.13999 4.55078,0.41992 1.21333,0.23335 2.07652,0.44224 2.58985,0.62891 l 1.11914,-5.66992 -0.23047,-0.0879 c -1.77012,-0.44059 -2.84674,-1.10609 -4.32227,-2.35352 -1.77227,-1.40513 -1.97945,-3.46446 -2.45507,-5.39843 -0.44653,-2.05675 0.54433,-3.87403 1.66992,-4.70899 0.75453,-0.87118 1.59788,-1.47822 2.25781,-2.74805 1.02089,-1.0415 1.68182,-2.02383 2.94727,-3.33593 0.65588,-0.82597 1.67449,-2.07458 2.84765,-2.64844 1.7353,-0.89208 3.38932,-2.27666 4.8125,-3.23828 1.37506,-1.21954 3.50145,-1.67014 4.32227,-2.8457 1.62139,-0.688 2.64221,-1.50917 3.92968,-2.84571 0.92146,-0.7496 2.54346,-1.85956 3.63282,-0.98047 0.38433,0.73985 0.14405,2.17456 0.49218,2.55078 -0.6079,0.52335 -0.34077,1.59471 -0.39257,2.06055 1.13452,-0.44028 2.37862,-0.14172 1.86523,1.07813 -1.71187,-0.5372 -1.48936,1.64503 -0.78516,2.45312 0.74887,-0.79713 1.82027,-1.98697 2.75,-0.49023 0.82947,0.76039 2.40233,0.13113 2.65235,-0.98047 0.33646,-1.11938 1.44882,-0.0381 2.0625,0.29297 1.21522,1.15571 2.58394,1.58941 4.41992,1.57031 1.12602,0.23346 2.8027,0.52763 3.73242,0.98242 1.10496,0.47727 2.40157,1.17038 3.4375,0.0977 0.99331,-0.52035 2.00015,-0.73868 1.27735,-2.25782 0.91417,-2.02368 -2.45128,-2.36459 -0.98243,-4.21874 -0.71186,-0.60142 -0.74799,-1.40147 -0.0996,-2.35547 1.0142,-0.90074 2.36657,-1.50439 3.73243,-0.58789 1.9158,0.37275 1.16553,1.96855 1.08203,3.33593 1.48027,1.44923 2.24283,3.54971 3.83008,4.61133 2.09386,0.54684 4.55456,0.28197 6.77734,0.58984 1.64919,0.0571 3.47565,0.0532 4.41992,-1.17773 0.52948,-1.23425 2.29676,-2.93835 0.6875,-4.12109 0.39742,-1.33546 0.12073,-3.91172 2.16016,-3.63086 1.4631,-0.14382 3.76198,0.039 3.53711,-2.06055 -0.41093,-0.64923 -1.69653,-1.35006 -0.88477,-2.06055 0.99922,-0.62695 1.61718,-1.97727 0.6875,-2.8457 -0.73232,-2.09907 1.34605,-2.59335 2.55469,-3.14062 0.84377,-0.71298 0.82078,-2.3888 -0.0996,-3.23633 -0.79442,-1.92831 2.02701,-2.25111 2.55469,-3.53321 0.39042,-1.40651 -0.0578,-3.36976 -1.66993,-2.45312 -1.90834,0.46403 -3.2209,0.40359 -4.41992,-0.98047 -1.03365,-0.97343 -3.63364,-0.9607 -4.41992,0.19531 -1.25965,0.95083 -3.92885,0.68571 -4.41992,-0.6875 -1.06968,-1.03506 -2.14086,1.07785 -3.24219,0.19727 -0.90654,-1.15896 0.57628,-1.66966 0.78711,-2.55078 -0.44697,-0.80338 -2.13166,-0.19467 -2.35742,-0.58985 -0.64553,-1.12501 -1.29593,-1.30789 -0.78711,-2.64843 0.36325,-3.22974 -2.74522,-3.49723 -5.59766,-3.14063 -0.89463,-0.67497 -1.41414,-1.6594 -2.84765,-0.6875 -0.81836,0.2868 -1.92122,1.3884 -3.04492,0.98242 -0.35147,-1.51647 0.45417,-4.62849 -2.16211,-3.63086 -1.26787,0.5705 -2.30613,1.19124 -2.65235,2.35547 -1.08239,1.68758 -1.55817,0.25575 -2.45508,-0.0996 -0.85631,-1.35345 -1.13601,-2.99118 -0.39257,-4.70898 0.40107,-1.74227 0.53788,-3.72179 -0.39258,-4.90625 -0.25246,-1.81738 -1.56688,-4.17335 0,-5.59375 0.30931,-0.89943 1.98128,-2.12596 0.58984,-3.04102 -1.49579,0.1224 -3.10507,-0.12825 -2.16211,-1.96289 0.52993,-1.20283 1.03612,-3.05584 -1.17773,-2.55078 -1.78926,0.75844 -3.29367,-0.11684 -4.41992,-0.98047 -1.68785,-0.97556 -2.23738,-2.14234 -4.51758,-2.06054 -1.26084,0.33568 -0.30638,1.27148 0.39258,1.4707 1.3176,1.03345 -1.36028,1.66803 -1.66993,0.58984 -1.27161,-0.76203 -0.72548,1.33219 0,1.27539 1.19054,0.53597 -0.64308,2.10259 -1.27734,1.17774 -1.71418,-0.24743 -2.31123,-2.05045 -1.86523,-3.79492 0.0678,-1.36481 0.87003,-3.91247 -0.29493,-4.64455 -1.24518,0.36842 -1.5568,-0.65147 -1.66992,-1.17773 -0.92403,1.20394 -1.86417,-0.70597 -3.04492,0.19727 -0.80384,0.64232 -1.65355,1.39109 -2.84961,1.76562 -0.69072,0.71704 -0.73297,2.34947 -2.0625,2.35547 -0.90832,-1.24315 -0.44895,-3.16285 1.08203,-3.43555 0.97432,-0.47811 2.36463,-0.86557 1.86524,-2.64843 0.24911,-0.87568 2.11607,0.11427 2.25976,-0.78516 0.41073,-1.51456 0.70607,-3.1195 0.49805,-4.81836 -0.87323,-0.86255 -1.64461,-2.33243 -3.34766,-1.56055 -1.48017,0.32346 -1.89191,1.62865 -2.25781,2.65039 -2.5177,0.52731 -1.11271,-3.03017 -2.84961,-3.04297 -1.71194,-0.008 -3.76096,-0.37505 -4.91015,0.78516 -0.92005,0.50689 -1.54221,0.29757 -2.25977,-0.0977 -0.60364,0.75076 -1.5494,-0.6557 -2.16016,-0.78515 -0.48754,-0.17506 -0.94232,-0.22708 -1.35351,-0.18164 z m 2.48047,16.86915 c 0.72983,-0.0126 1.45464,0.18805 1.875,0.59375 1.08893,1.41015 1.80302,3.54066 0.92578,5.58203 -0.93801,1.44382 -0.9882,3.4878 -0.29297,5.00391 1.18528,1.61372 1.54165,2.41761 2.94531,3.72851 0.82428,0.87254 0.67861,3.01921 -0.49023,3.82617 -0.44871,1.0722 -1.65088,0.095 -2.35742,-0.19531 -0.47578,-1.68238 -3.41246,-2.45503 -3.83008,-4.51367 0.13584,-2.18458 1.12039,-4.30757 0.19531,-6.47656 -0.68529,-1.21995 -2.37496,-2.02142 -2.75,-3.4336 -1.27195,-1.67522 0.4725,-2.80109 1.86719,-3.43359 0.44729,-0.44304 1.18227,-0.66908 1.91211,-0.68164 z m 18.23632,12.26172 c 0.16539,0.005 0.35836,0.0348 0.57618,0.0957 1.87738,0.4113 3.2779,1.09924 4.32031,2.35547 1.25285,1.56943 1.51835,4.47462 0.49219,6.18164 -0.15645,0.20499 -0.51975,1.08033 -0.49219,0.88281 l 0.0996,-0.29492 c 0.70925,-2.21309 -1.52728,-3.49254 -0.6875,-5.39648 -0.0266,-2.01454 -2.70633,-1.82384 -4.02735,-2.74805 -1.3167,0.0598 -1.43895,-1.1092 -0.28125,-1.07617 z m -32.32031,7.24218 c 0.10681,-0.0206 0.22033,-0.0197 0.33985,0.008 0.13658,0.0315 0.28251,0.0971 0.4375,0.20508 0.3484,1.58312 -0.0403,3.63617 1.08007,4.80859 0.53885,0.74479 1.45969,1.26658 2.21485,1.54297 0.0328,-0.0643 0.0749,-0.11911 0.0957,-0.19727 0.54064,-0.18706 0.35492,0.15169 0.23828,0.32031 0.002,5.1e-4 0.004,10e-4 0.006,0.002 -0.11827,0.14662 -0.0704,0.0914 -0.006,-0.002 -0.10275,-0.0293 -0.22158,-0.0819 -0.33398,-0.12304 -0.44567,0.87227 -1.91516,0.56909 -2.60742,1.30273 -1.30025,0.5975 -2.51134,-0.81794 -1.57032,-1.76758 0.0939,-1.4261 -0.33158,-1.78148 -1.47461,-1.86328 -1.25588,-0.0392 -0.62641,-1.4805 0,-2.25781 0.38086,-0.62659 0.83244,-1.83405 1.58008,-1.97852 z m 25.4375,4.36133 c 0.18343,0.006 0.37674,0.0289 0.58203,0.0703 1.08356,0.47084 -0.39299,0.94264 -1.08007,0.98243 -0.98915,0.30676 -1.71366,1.10767 -2.65235,0.29297 1.06495,-0.64373 1.86641,-1.39103 3.15039,-1.34571 z m -43.61719,3.50586 c 1.71541,0.4266 2.86669,1.3431 4.32227,1.96094 1.63018,0.86868 2.28866,3.31606 2.94727,5.49609 -0.63161,0.1977 -1.31362,0.0517 -1.96485,0.0977 -0.13227,-1.05846 -0.20048,-2.24637 -0.6875,-3.23828 -0.15812,-1.45836 -1.93465,-1.87203 -2.65234,-2.25586 -0.57897,-0.72175 -2.79837,-0.73294 -1.96485,-2.06055 z m -20.74023,5.16016 c 1.05354,0.002 1.75992,0.61225 2.57031,0.92187 0.93175,0.1794 1.831,1.56623 0.49024,1.76758 -0.87134,0.7663 -0.91855,-1.67103 -1.96289,-0.6875 0.008,1.44335 -0.54063,-0.66102 -0.88477,-0.0977 -0.40378,0.98083 -1.51365,1.37691 -2.55273,1.76563 -2.06307,0.40739 -1.8118,-3.41149 0.39257,-2.25586 l 0.29493,0.0977 c 0.20786,-0.79377 0.58567,-1.08781 1.17773,-1.47266 0.16597,-0.0273 0.3241,-0.0393 0.47461,-0.0391 z m 59.24609,4.63086 c 0.92062,0.092 1.56371,1.27388 1.17579,2.375 -0.87394,0.57597 -0.98668,2.3079 -1.96485,2.8457 -0.64211,0.42274 -1.71292,0.69532 -1.86523,1.17773 -0.25454,-0.34019 0.0782,-0.89431 -0.19727,-1.17773 0.1967,-1.9671 1.00331,-3.29705 1.86719,-4.90625 0.34071,-0.25503 0.6775,-0.34511 0.98437,-0.31445 z m 59.76953,2.51953 c 1.11207,-0.11516 0.21685,1.82984 0.043,2.60351 -0.51684,1.74491 2.76241,1.97754 1.57227,4.02344 -1.14443,0.16066 -0.71479,-2.5729 -2.75,-1.76758 -1.73396,0.73977 -2.62387,-0.34842 -3.4375,-1.76562 0.69418,-0.0412 1.28763,-0.11196 1.89453,-0.49024 1.04958,-0.35683 1.88705,-1.56295 2.42773,-2.55078 0.0928,-0.0269 0.17588,-0.045 0.25,-0.0527 z m -93.40039,0.40039 c 0.15314,-0.0173 0.32605,-0.004 0.52735,0.0449 0.87001,0.7872 -0.41479,1.74539 -0.58789,2.45313 -0.68761,0.91347 -1.25449,2.37137 -0.6875,3.72851 0.59064,1.77749 1.82335,2.4674 3.14258,3.33594 0.59826,0.43212 1.52331,0.57666 1.86523,0.98047 -0.41966,-0.26345 -2.05833,-0.005 -2.84766,-0.19531 -1.33232,-0.42912 -2.41008,-1.32757 -3.83007,-1.47266 -0.83269,-0.65681 -1.18977,-1.45625 -2.16211,-1.86328 -0.0351,-1.22906 1.74403,-0.92732 2.16211,-1.57031 -1.07235,-0.87351 -0.85818,-2.48731 0.0977,-3.23829 1.2006,-0.52145 1.24837,-2.08219 2.32031,-2.20312 z m 78.64063,0.17969 c 0.89111,0.009 1.82733,0.6692 1.64258,1.69531 -0.40099,1.60631 -1.68242,2.32452 -1.375,4.54687 -0.46688,1.1755 -2.72494,0.98901 -3.4375,1.9629 -0.31396,0.093 -0.62943,0.10741 -1.08203,0.19531 1.50682,-2.42193 1.50605,-5.40483 2.94726,-7.65235 0.25172,-0.52401 0.77002,-0.75367 1.30469,-0.74804 z m -63.16797,4.12109 c 1.38932,-0.15203 2.63905,1.09058 4.01172,1.14063 1.34547,0.39382 1.40561,-1.04304 2.0625,-0.88282 -0.17026,1.85315 -1.00235,3.24353 -1.375,5.10157 -0.90807,-1.60385 -2.25974,-2.35461 -4.22266,-2.84571 -1.97086,0.50575 -2.13699,-1.80798 -1.08203,-2.35547 0.20494,-0.0861 0.407,-0.13648 0.60547,-0.1582 z m 22.70117,1.48828 c 0.43721,0.0584 0.62888,1.31007 0.5625,1.12305 0.19699,1.3739 0.0767,2.9119 -0.39453,4.12109 -0.66147,1.2577 -1.64086,1.98684 -2.55273,3.14063 -0.44238,-0.67715 -0.44058,-1.21472 -0.39258,-2.25586 -0.62763,-0.41733 -2.08527,0.59897 -1.76758,-1.27735 0.29371,-2.03658 1.92832,-2.82797 2.65039,-4.21875 0.59859,-0.87431 0.73091,0.32695 1.375,-0.19531 0.20016,-0.34343 0.3738,-0.45698 0.51953,-0.4375 z m 8.85742,2.80078 c 0.88074,0.0163 1.59967,0.60089 2.01758,1.36524 -0.53894,0.8336 -0.59462,2.54156 0.78516,3.04101 l 0.29492,0 c -0.54617,0.2001 -0.83813,0.80585 -0.99219,0.83985 -1.89005,1.42595 -3.92087,2.37886 -5.98047,3.47851 -1.53717,0.70832 -2.87932,1.83654 -4.12695,2.64844 -2.2458,1.35448 -4.08005,2.52616 -5.7832,4.06641 -0.7578,0.76125 -1.92166,1.90223 -2.95703,2.50781 -1.26498,0.97098 -2.42171,1.73108 -3.14258,3.14062 -0.5739,1.30069 -0.25395,-1.21555 -0.49219,-1.86523 -0.60811,-2.12169 0.33657,-3.13711 1.27735,-4.73828 0.88693,-0.98966 2.60661,-2.02592 4.32226,-2.52149 1.77324,-1.18779 4.10864,-1.90138 5.20508,-3.63086 1.79983,-1.30799 2.31365,-3.88572 3.24023,-5.49609 1.11948,-1.71027 3.65352,-1.43659 5.40235,-2.64844 0.32461,-0.13511 0.63611,-0.19293 0.92968,-0.1875 z"
       id="path5022" />
    <path
       style="display:inline;fill:#afafaf;fill-opacity:1;fill-rule:evenodd;stroke:#000000;stroke-width:1px;stroke-linecap:butt;stroke-linejoin:miter;stroke-opacity:1"
       d="m 449.15784,415.33678 2.25173,-61.68293 1.8295,0.0494 3.91547,-1.66589 z"
       id="path4448"
       inkscape:connector-curvature="0"
       sodipodi:nodetypes="ccccc" />
  </g>
</svg>
